<svg width="65" height="65" viewBox="0 0 65 65" fill="none" xmlns="http://www.w3.org/2000/svg">
<path d="M59.8075 30.8623C57.576 26.1612 54.9206 22.3272 51.8412 19.3603L48.6115 22.59C51.2451 25.1069 53.5391 28.3994 55.5228 32.5C50.2415 43.4307 42.745 48.623 32.4998 48.623C29.4246 48.623 26.5921 48.1495 24.0022 47.2024L20.5028 50.7019C24.0998 52.3629 28.0988 53.1933 32.4998 53.1933C44.7 53.1933 53.8026 46.8393 59.8075 34.1313C60.0489 33.6203 60.1741 33.062 60.1741 32.4968C60.1741 31.9316 60.0489 31.3734 59.8075 30.8623V30.8623ZM55.7723 10.5092L53.0662 7.79999C53.0191 7.75277 52.9631 7.71531 52.9014 7.68976C52.8398 7.6642 52.7737 7.65105 52.707 7.65105C52.6402 7.65105 52.5742 7.6642 52.5125 7.68976C52.4509 7.71531 52.3949 7.75277 52.3477 7.79999L45.4053 14.7392C41.5776 12.7842 37.2758 11.8066 32.4998 11.8066C20.2996 11.8066 11.1971 18.1606 5.19223 30.8686C4.95086 31.3797 4.82568 31.9379 4.82568 32.5032C4.82568 33.0684 4.95086 33.6266 5.19223 34.1377C7.59122 39.1904 10.4794 43.2404 13.8568 46.2877L7.13969 53.0029C7.04453 53.0981 6.99107 53.2273 6.99107 53.3619C6.99107 53.4965 7.04453 53.6256 7.13969 53.7208L9.8495 56.4307C9.94473 56.5258 10.0738 56.5793 10.2085 56.5793C10.3431 56.5793 10.4722 56.5258 10.5674 56.4307L55.7723 11.2277C55.8195 11.1806 55.8569 11.1246 55.8825 11.0629C55.908 11.0013 55.9212 10.9352 55.9212 10.8684C55.9212 10.8017 55.908 10.7356 55.8825 10.674C55.8569 10.6123 55.8195 10.5563 55.7723 10.5092ZM9.4769 32.5C14.7645 21.5693 22.2611 16.3769 32.4998 16.3769C35.9619 16.3769 39.1097 16.9711 41.9655 18.179L37.5031 22.6414C35.3897 21.5139 32.9699 21.0954 30.6007 21.4477C28.2314 21.8001 26.0381 22.9046 24.3443 24.5984C22.6506 26.2921 21.546 28.4854 21.1937 30.8547C20.8413 33.224 21.2598 35.6438 22.3874 37.7571L17.0922 43.0523C14.1615 40.4657 11.6351 36.9611 9.4769 32.5ZM25.1366 32.5C25.1377 31.3807 25.4028 30.2774 25.9104 29.2798C26.418 28.2822 27.1538 27.4184 28.058 26.7586C28.9621 26.0988 30.0092 25.6615 31.1141 25.4824C32.219 25.3033 33.3505 25.3873 34.4168 25.7277L25.4736 34.6709C25.2495 33.9691 25.1358 33.2367 25.1366 32.5V32.5Z" fill="#004FC6"/>
<path d="M32.246 39.6094C32.0264 39.6094 31.8099 39.5992 31.5954 39.5795L28.2425 42.9324C30.2591 43.7047 32.4563 43.8763 34.5683 43.4265C36.6803 42.9767 38.6169 41.9247 40.1438 40.3978C41.6707 38.8709 42.7227 36.9343 43.1725 34.8223C43.6223 32.7102 43.4506 30.5131 42.6784 28.4965L39.3255 31.8494C39.3452 32.0639 39.3554 32.2804 39.3554 32.5C39.3559 33.4338 39.1723 34.3585 38.8152 35.2212C38.4581 36.084 37.9345 36.8679 37.2742 37.5282C36.6139 38.1885 35.83 38.7121 34.9672 39.0692C34.1045 39.4263 33.1798 39.6099 32.246 39.6094V39.6094Z" fill="#004FC6"/>
</svg>
