<svg width="78" height="78" viewBox="0 0 78 78" fill="none" xmlns="http://www.w3.org/2000/svg">
<path d="M20.2311 15.6357C19.6181 15.0437 18.7972 14.7161 17.945 14.7235C17.0929 14.7309 16.2777 15.0727 15.6752 15.6753C15.0726 16.2779 14.7308 17.093 14.7234 17.9452C14.716 18.7973 15.0436 19.6183 15.6356 20.2312L34.4043 39L15.6323 57.7687C15.3219 58.0685 15.0743 58.4271 14.904 58.8237C14.7337 59.2202 14.644 59.6466 14.6403 60.0782C14.6365 60.5097 14.7187 60.9377 14.8822 61.3371C15.0456 61.7365 15.2869 62.0993 15.592 62.4045C15.8972 62.7097 16.2601 62.951 16.6595 63.1144C17.0589 63.2778 17.4868 63.36 17.9184 63.3563C18.3499 63.3525 18.7764 63.2629 19.1729 63.0925C19.5694 62.9222 19.928 62.6746 20.2278 62.3642L38.9998 43.5955L57.7686 62.3642C58.3815 62.9562 59.2025 63.2838 60.0546 63.2764C60.9068 63.269 61.7219 62.9272 62.3245 62.3246C62.9271 61.722 63.2689 60.9069 63.2763 60.0548C63.2837 59.2026 62.9561 58.3817 62.3641 57.7687L43.5953 39L62.3641 20.2312C62.9561 19.6183 63.2837 18.7973 63.2763 17.9452C63.2689 17.093 62.9271 16.2779 62.3245 15.6753C61.7219 15.0727 60.9068 14.7309 60.0546 14.7235C59.2025 14.7161 58.3815 15.0437 57.7686 15.6357L38.9998 34.4045L20.2311 15.6325V15.6357Z" fill="black"/>
</svg>
