<svg width="36" height="46" viewBox="0 0 36 46" fill="none" xmlns="http://www.w3.org/2000/svg">
<path d="M28.625 0.125H14.375C12.4853 0.125 10.6731 0.875668 9.33686 2.21186C8.00067 3.54806 7.25 5.36033 7.25 7.25V16.75H9.625V7.25C9.625 5.99022 10.1254 4.78204 11.0162 3.89124C11.907 3.00044 13.1152 2.5 14.375 2.5H28.625C29.8848 2.5 31.093 3.00044 31.9838 3.89124C32.8746 4.78204 33.375 5.99022 33.375 7.25V38.125C33.375 39.3848 32.8746 40.593 31.9838 41.4838C31.093 42.3746 29.8848 42.875 28.625 42.875H14.375C13.1152 42.875 11.907 42.3746 11.0162 41.4838C10.1254 40.593 9.625 39.3848 9.625 38.125V28.625H7.25V38.125C7.25 40.0147 8.00067 41.8269 9.33686 43.1631C10.6731 44.4993 12.4853 45.25 14.375 45.25H28.625C30.5147 45.25 32.3269 44.4993 33.6631 43.1631C34.9993 41.8269 35.75 40.0147 35.75 38.125V7.25C35.75 5.36033 34.9993 3.54806 33.6631 2.21186C32.3269 0.875668 30.5147 0.125 28.625 0.125ZM0.125 21.5H24.4688L16.75 13.7812L18.327 12L29.0145 22.6875L18.327 33.375L16.75 31.5938L24.4688 23.875H0.125V21.5Z" fill="white"/>
</svg>
