<svg width="39" height="39" viewBox="0 0 39 39" fill="none" xmlns="http://www.w3.org/2000/svg">
<path d="M18.8257 8.55888C21.8059 8.55888 24.6074 9.87676 26.6647 11.9389V11.9454C26.6647 10.9558 27.3309 10.2099 28.2556 10.2099H28.4912C29.9391 10.2099 30.2348 11.5781 30.2348 12.012L30.2429 27.4089C30.1406 28.418 31.2829 28.938 31.9151 28.2913C34.3867 25.7498 37.3458 15.2295 30.3778 9.13251C23.8843 3.44988 15.1727 4.38588 10.5382 7.58063C5.61281 10.9785 2.46031 18.4974 5.52343 25.5596C8.86118 33.2621 18.4113 35.5566 24.0874 33.2686C26.9621 32.1068 28.2897 35.9921 25.3046 37.2613C20.7936 39.1853 8.2388 38.9903 2.37581 28.8308C-1.58757 21.9716 -1.37632 9.90113 9.13255 3.64813C17.1714 -1.13424 27.7713 0.190132 34.1608 6.86401C40.8412 13.8418 40.4528 26.9068 33.9349 31.9881C30.9839 34.2956 26.5964 32.0483 26.6257 28.6878L26.5948 27.586C24.5392 29.627 21.8043 30.8165 18.8241 30.8165C12.9334 30.8165 7.75293 25.6344 7.75293 19.747C7.75293 13.8011 12.9351 8.55888 18.8257 8.55888ZM26.2373 19.3213C26.0147 15.0101 22.8151 12.4166 18.9508 12.4166H18.8046C14.3439 12.4166 11.8691 15.925 11.8691 19.9079C11.8691 24.3718 14.8623 27.1895 18.7851 27.1895C23.1612 27.1895 26.0391 23.9834 26.2471 20.1923L26.2373 19.3213Z" fill="#B7B7B7"/>
</svg>
