<svg width="42" height="42" viewBox="0 0 42 42" fill="none" xmlns="http://www.w3.org/2000/svg">
<path d="M21.1459 24.9167C32.3638 24.9167 41.4584 29.1606 41.4584 34.3959V41.1667H0.833374V34.3959C0.833374 29.1606 9.92796 24.9167 21.1459 24.9167ZM38.75 34.3959C38.75 30.6584 30.8688 27.625 21.1459 27.625C11.423 27.625 3.54171 30.6584 3.54171 34.3959V38.4584H38.75V34.3959ZM21.1459 0.541687C23.6599 0.541687 26.071 1.54038 27.8487 3.31807C29.6263 5.09576 30.625 7.50682 30.625 10.0209C30.625 12.5349 29.6263 14.9459 27.8487 16.7236C26.071 18.5013 23.6599 19.5 21.1459 19.5C18.6318 19.5 16.2208 18.5013 14.4431 16.7236C12.6654 14.9459 11.6667 12.5349 11.6667 10.0209C11.6667 7.50682 12.6654 5.09576 14.4431 3.31807C16.2208 1.54038 18.6318 0.541687 21.1459 0.541687ZM21.1459 3.25002C19.3501 3.25002 17.6279 3.96337 16.3582 5.23315C15.0884 6.50293 14.375 8.22512 14.375 10.0209C14.375 11.8166 15.0884 13.5388 16.3582 14.8086C17.6279 16.0783 19.3501 16.7917 21.1459 16.7917C22.9416 16.7917 24.6638 16.0783 25.9336 14.8086C27.2034 13.5388 27.9167 11.8166 27.9167 10.0209C27.9167 8.22512 27.2034 6.50293 25.9336 5.23315C24.6638 3.96337 22.9416 3.25002 21.1459 3.25002Z" fill="white"/>
</svg>
