<svg width="49" height="49" viewBox="0 0 49 49" fill="none" xmlns="http://www.w3.org/2000/svg">
<path d="M49 15.3125C49 13.475 47.775 12.25 45.9375 12.25H3.0625C1.225 12.25 0 13.475 0 15.3125V33.6875C0 35.525 1.225 36.75 3.0625 36.75H45.9375C47.775 36.75 49 35.525 49 33.6875V15.3125ZM45.9375 33.6875H3.0625V15.3125H45.9375V33.6875Z" fill="#B7B7B7"/>
<path d="M18.375 24.5C18.375 25.3122 18.0523 26.0912 17.478 26.6655C16.9037 27.2398 16.1247 27.5625 15.3125 27.5625C14.5003 27.5625 13.7213 27.2398 13.147 26.6655C12.5727 26.0912 12.25 25.3122 12.25 24.5C12.25 23.6878 12.5727 22.9088 13.147 22.3345C13.7213 21.7602 14.5003 21.4375 15.3125 21.4375C16.1247 21.4375 16.9037 21.7602 17.478 22.3345C18.0523 22.9088 18.375 23.6878 18.375 24.5Z" fill="#B7B7B7"/>
<path d="M27.5625 24.5C27.5625 25.3122 27.2398 26.0912 26.6655 26.6655C26.0912 27.2398 25.3122 27.5625 24.5 27.5625C23.6878 27.5625 22.9088 27.2398 22.3345 26.6655C21.7602 26.0912 21.4375 25.3122 21.4375 24.5C21.4375 23.6878 21.7602 22.9088 22.3345 22.3345C22.9088 21.7602 23.6878 21.4375 24.5 21.4375C25.3122 21.4375 26.0912 21.7602 26.6655 22.3345C27.2398 22.9088 27.5625 23.6878 27.5625 24.5Z" fill="#B7B7B7"/>
<path d="M36.75 24.5C36.75 25.3122 36.4273 26.0912 35.853 26.6655C35.2787 27.2398 34.4997 27.5625 33.6875 27.5625C32.8753 27.5625 32.0963 27.2398 31.522 26.6655C30.9477 26.0912 30.625 25.3122 30.625 24.5C30.625 23.6878 30.9477 22.9088 31.522 22.3345C32.0963 21.7602 32.8753 21.4375 33.6875 21.4375C34.4997 21.4375 35.2787 21.7602 35.853 22.3345C36.4273 22.9088 36.75 23.6878 36.75 24.5Z" fill="#B7B7B7"/>
</svg>
